<svg xmlns="http://www.w3.org/2000/svg" xmlns:xlink="http://www.w3.org/1999/xlink" width="40" zoomAndPan="magnify" viewBox="0 0 30 30.000001" height="40" preserveAspectRatio="xMidYMid meet" version="1.0"><defs><g/><clipPath id="64d08d3409"><path d="M 0.484375 0 L 29.515625 0 L 29.515625 29.03125 L 0.484375 29.03125 Z M 0.484375 0 " clip-rule="nonzero"/></clipPath><clipPath id="a193433450"><path d="M 15 0 C 6.984375 0 0.484375 6.5 0.484375 14.515625 C 0.484375 22.53125 6.984375 29.03125 15 29.03125 C 23.015625 29.03125 29.515625 22.53125 29.515625 14.515625 C 29.515625 6.5 23.015625 0 15 0 Z M 15 0 " clip-rule="nonzero"/></clipPath></defs><g clip-path="url(#64d08d3409)"><g clip-path="url(#a193433450)"><path fill="#39393a" d="M 0.484375 0 L 29.515625 0 L 29.515625 29.03125 L 0.484375 29.03125 Z M 0.484375 0 " fill-opacity="1" fill-rule="nonzero"/></g></g><g fill="#b80c09" fill-opacity="1"><g transform="translate(5.856202, 23.442413)"><g><path d="M 11.953125 -7.203125 L 8.75 -16.421875 L 5.71875 -7.203125 Z M 6.28125 -1.234375 L 6.28125 0 L 0.03125 0 L 0.03125 -1.234375 L 1.5 -1.578125 C 1.664062 -1.617188 1.8125 -1.691406 1.9375 -1.796875 C 2.0625 -1.898438 2.15625 -2.039062 2.21875 -2.21875 L 7.953125 -18.859375 L 10.53125 -18.859375 L 16.515625 -2.21875 C 16.578125 -2.039062 16.664062 -1.898438 16.78125 -1.796875 C 16.90625 -1.703125 17.054688 -1.628906 17.234375 -1.578125 L 18.609375 -1.234375 L 18.609375 0 L 11.5 0 L 11.5 -1.234375 L 13.875 -1.65625 L 12.453125 -5.734375 L 5.234375 -5.734375 L 3.90625 -1.65625 Z M 6.28125 -1.234375 "/></g></g></g></svg>